<svg id="MARCA" xmlns="http://www.w3.org/2000/svg" viewBox="0 0 694.26 343.81"><defs><style>.cls-1{fill:#c0c0c2;}.cls-2{fill:none;}</style></defs><title>totvs_h_pos_cinza</title><path class="cls-1" d="M328.92,143.95H309.56V213.5a2.4,2.4,0,0,1-2.39,2.39H291.51a2.4,2.4,0,0,1-2.39-2.39V143.95H269.64a2.3,2.3,0,0,1-2.39-2.27V129.37a2.3,2.3,0,0,1,2.39-2.27h59.27a2.4,2.4,0,0,1,2.51,2.27v12.31A2.4,2.4,0,0,1,328.92,143.95Z" transform="translate(0.02 0)"/><path class="cls-1" d="M371.57,217c-19.72,0-35.37-10.63-35.37-38.36V164.38c0-27.73,15.66-38.36,35.37-38.36s35.37,10.63,35.37,38.36v14.22C406.95,206.33,391.3,217,371.57,217Zm14.82-52.58c0-14.34-4.78-20.43-14.82-20.43s-14.7,6.09-14.7,20.43v14.22c0,14.34,4.66,20.43,14.7,20.43s14.82-6.09,14.82-20.43Z" transform="translate(0.02 0)"/><path class="cls-1" d="M473.15,143.95H453.79V213.5a2.39,2.39,0,0,1-2.39,2.39H435.75a2.39,2.39,0,0,1-2.38-2.39V143.95H413.88a2.3,2.3,0,0,1-2.4-2.27V129.37a2.3,2.3,0,0,1,2.4-2.27h59.27a2.4,2.4,0,0,1,2.51,2.27v12.31A2.4,2.4,0,0,1,473.15,143.95Z" transform="translate(0.02 0)"/><path class="cls-1" d="M557.17,129.61l-17.81,74.09C536.61,215.17,527.89,217,519.64,217s-17.09-1.79-19.84-13.27L482,129.61c0-.24-.12-.36-.12-.6A2,2,0,0,1,484,127.1h16.62a2.54,2.54,0,0,1,2.38,2.15l14.94,69c.25,1.31.6,1.79,1.68,1.79s1.44-.47,1.68-1.79l14.94-69a2.41,2.41,0,0,1,2.27-2.15h16.73a1.85,1.85,0,0,1,2,1.91A5.44,5.44,0,0,0,557.17,129.61Z" transform="translate(0.02 0)"/><path class="cls-1" d="M590.87,217a88.76,88.76,0,0,1-22.59-2.63c-1.2-.36-2.39-1.08-2.39-2.39V200.23A2,2,0,0,1,568,198h.36c4.89.48,18,1.43,22.7,1.43,8.25,0,10.63-2.63,10.63-8.36,0-3.47-1.68-5.38-7.88-9.08l-16.49-9.8c-11.12-6.57-14.1-14.1-14.1-22.83,0-13.15,7.4-23.3,30.59-23.3,8.72,0,20.79,1.44,25.33,2.63A2.1,2.1,0,0,1,621,130.8v12.07a1.82,1.82,0,0,1-2,2h-.23c-3.35-.24-17.21-1.32-25.34-1.32-6.81,0-9.32,2-9.32,6.33,0,3.35,1.55,4.9,8,8.37l15.29,8.25c12.43,6.69,16.14,14.58,16.14,24.26C623.49,203.46,615.12,217,590.87,217Z" transform="translate(0.02 0)"/><path class="cls-1" d="M174.76,160.06c-3.08-2.63-28.31-9.76-49.28-14.71-.16,16.19.83,33.79,3,36.85,3.07,2.63,28.31,9.76,49.29,14.71C177.91,180.73,176.92,163.12,174.76,160.06Z" transform="translate(0.02 0)"/><path class="cls-1" d="M151.7,90.94a81,81,0,1,0,81,81A81,81,0,0,0,151.7,90.94Zm54.58,111c-2.08.73-14.33-1.63-28.53-5-.14,13.93-1.14,26.81-3,28.52-5.15,1.8-72.67-15.28-77.82-19.69-4-5.7-4-61.69,0-65.37,2.08-.72,14.33,1.63,28.54,5,.14-13.93,1.13-26.82,3-28.52,5.15-1.79,72.65,15.27,77.81,19.68C210.29,142.23,210.27,198.21,206.28,201.89Z" transform="translate(0.02 0)"/><rect class="cls-2" width="694.26" height="343.81"/></svg>